<?xml version="1.0" standalone="no"?>
<!DOCTYPE svg PUBLIC "-//W3C//DTD SVG 20010904//EN"
 "http://www.w3.org/TR/2001/REC-SVG-20010904/DTD/svg10.dtd">
<svg version="1.0" xmlns="http://www.w3.org/2000/svg"
 width="1024.000000pt" height="1024.000000pt" viewBox="0 0 1024.000000 1024.000000"
 preserveAspectRatio="xMidYMid meet">

<g transform="translate(0.000000,1024.000000) scale(0.100000,-0.100000)"
fill="#5f259f" stroke="none">
<path d="M3496 7460 c-105 -22 -243 -86 -333 -154 -127 -96 -244 -279 -295
-461 l-23 -80 -3 -1700 c-2 -1206 0 -1719 8 -1765 31 -178 102 -315 232 -442
75 -75 104 -95 192 -138 197 -97 39 -90 2037 -90 1983 0 1816 -7 1905 84 83
85 97 196 38 293 -33 54 -111 107 -171 117 -21 3 -829 6 -1795 6 l-1757 0 -58
21 c-117 44 -192 158 -180 274 12 117 105 217 222 241 22 5 834 9 1805 9
l1765 0 52 24 c65 29 124 91 149 157 18 47 19 101 19 1724 l0 1675 -21 46
c-31 66 -86 123 -147 150 l-52 24 -1750 2 c-1681 2 -1754 1 -1839 -17z m1051
-941 c15 -5 44 -21 63 -34 75 -50 797 -526 1020 -673 129 -85 246 -164 258
-176 88 -79 78 -215 -20 -286 -24 -17 -149 -99 -278 -181 -129 -83 -399 -257
-600 -386 -201 -130 -385 -247 -409 -260 -81 -42 -189 -25 -247 39 -57 62 -54
12 -54 953 0 845 0 867 20 905 20 40 67 81 110 99 34 13 102 13 137 0z"/>
</g>
</svg>
